<svg width="150" height="150" viewBox="0 0 150 150" fill="none" xmlns="http://www.w3.org/2000/svg">
<path d="M150 75C150 33.5786 116.421 -1.14441e-05 75 -1.14441e-05C33.5786 -1.14441e-05 0 33.5786 0 75C0 112.435 27.4264 143.462 63.2812 149.089V96.6797H44.2383V75H63.2812V58.4766C63.2812 39.6797 74.4782 29.2969 91.6099 29.2969C99.8155 29.2969 108.398 30.7617 108.398 30.7617V49.2187H98.9411C89.6243 49.2187 86.7188 55 86.7188 60.9312V75H107.52L104.194 96.6797H86.7188V149.089C122.574 143.462 150 112.435 150 75Z" fill="#1877F2"/>
<path d="M104.194 96.6797L107.52 75H86.7188V60.9312C86.7188 55 89.6243 49.2188 98.9411 49.2188H108.398V30.7617C108.398 30.7617 99.8155 29.2969 91.6099 29.2969C74.4782 29.2969 63.2813 39.6797 63.2813 58.4766V75H44.2383V96.6797H63.2813V149.089C67.0997 149.688 71.0133 150 75 150C78.9867 150 82.9003 149.688 86.7188 149.089V96.6797H104.194Z" fill="white"/>
</svg>
