<svg width="138" height="138" viewBox="0 0 138 138" fill="none" xmlns="http://www.w3.org/2000/svg">
<path d="M134.75 70.3125C134.75 65.4375 134.313 60.75 133.5 56.25H68.75V82.8438H105.75C104.156 91.4375 99.3125 98.7188 92.0313 103.594V120.844H114.25C127.25 108.875 134.75 91.25 134.75 70.3125Z" fill="#4285F4"/>
<path d="M68.75 137.5C87.3125 137.5 102.875 131.344 114.25 120.844L92.0313 103.594C85.875 107.719 78 110.156 68.75 110.156C50.8437 110.156 35.6875 98.0625 30.2812 81.8125H7.3125V99.625C18.625 122.094 41.875 137.5 68.75 137.5Z" fill="#34A853"/>
<path d="M30.2813 81.8125C28.9063 77.6875 28.125 73.2813 28.125 68.75C28.125 64.2188 28.9063 59.8125 30.2813 55.6875V37.875H7.31251C2.5 47.4554 -0.00424141 58.0288 5.39242e-06 68.75C5.39242e-06 79.8438 2.65626 90.3438 7.31251 99.625L30.2813 81.8125Z" fill="#FBBC05"/>
<path d="M68.75 27.3438C78.8437 27.3438 87.9062 30.8125 95.0312 37.625L114.75 17.9063C102.844 6.8125 87.2812 0 68.75 0C41.875 0 18.625 15.4062 7.3125 37.875L30.2812 55.6875C35.6875 39.4375 50.8437 27.3438 68.75 27.3438Z" fill="#EA4335"/>
</svg>
