<svg width="40" height="45" viewBox="0 0 40 45" fill="none" xmlns="http://www.w3.org/2000/svg">
<path d="M35.5556 40H4.44444V15.5556H35.5556M28.8889 0V4.44444H11.1111V0H6.66667V4.44444H4.44444C1.97778 4.44444 0 6.42222 0 8.88889V40C0 41.1787 0.468252 42.3092 1.30175 43.1427C2.13524 43.9762 3.2657 44.4444 4.44444 44.4444H35.5556C36.7343 44.4444 37.8648 43.9762 38.6983 43.1427C39.5317 42.3092 40 41.1787 40 40V8.88889C40 7.71015 39.5317 6.57969 38.6983 5.74619C37.8648 4.9127 36.7343 4.44444 35.5556 4.44444H33.3333V0M31.1111 24.4444H20V35.5556H31.1111V24.4444Z" fill="white"/>
</svg>
