<svg width="48" height="48" viewBox="0 0 48 48" fill="none" xmlns="http://www.w3.org/2000/svg">
<rect width="48" height="48" rx="24" fill="#D9634D"/>
<path d="M20.4 28.308L24 24.708L27.6 28.308L28.308 27.6L24.708 24L28.308 20.4L27.6 19.692L24 23.292L20.4 19.692L19.692 20.4L23.292 24L19.692 27.6L20.4 28.308ZM24.003 33C22.759 33 21.589 32.764 20.493 32.292C19.3977 31.8193 18.4447 31.178 17.634 30.368C16.8233 29.558 16.1817 28.606 15.709 27.512C15.2363 26.418 15 25.2483 15 24.003C15 22.7577 15.2363 21.5877 15.709 20.493C16.181 19.3977 16.8213 18.4447 17.63 17.634C18.4387 16.8233 19.391 16.1817 20.487 15.709C21.583 15.2363 22.753 15 23.997 15C25.241 15 26.411 15.2363 27.507 15.709C28.6023 16.181 29.5553 16.8217 30.366 17.631C31.1767 18.4403 31.8183 19.3927 32.291 20.488C32.7637 21.5833 33 22.753 33 23.997C33 25.241 32.764 26.411 32.292 27.507C31.82 28.603 31.1787 29.556 30.368 30.366C29.5573 31.176 28.6053 31.8177 27.512 32.291C26.4187 32.7643 25.249 33.0007 24.003 33ZM24 32C26.2333 32 28.125 31.225 29.675 29.675C31.225 28.125 32 26.2333 32 24C32 21.7667 31.225 19.875 29.675 18.325C28.125 16.775 26.2333 16 24 16C21.7667 16 19.875 16.775 18.325 18.325C16.775 19.875 16 21.7667 16 24C16 26.2333 16.775 28.125 18.325 29.675C19.875 31.225 21.7667 32 24 32Z" fill="black" stroke="black"/>
</svg>
