<svg width="48" height="48" viewBox="0 0 48 48" fill="none" xmlns="http://www.w3.org/2000/svg">
<rect width="48" height="48" rx="24" fill="#4D85DA"/>
<path d="M28.1045 20.2295L28.8955 21.0205L22.3125 27.6035L19.1045 24.3955L19.8955 23.6045L22.3125 26.0215L28.1045 20.2295ZM24 15C24.8262 15 25.623 15.1055 26.3906 15.3164C27.1582 15.5273 27.876 15.8291 28.5439 16.2217C29.2119 16.6143 29.8184 17.083 30.3633 17.6279C30.9082 18.1729 31.377 18.7822 31.7695 19.4561C32.1621 20.1299 32.4639 20.8477 32.6748 21.6094C32.8857 22.3711 32.9941 23.168 33 24C33 24.8262 32.8945 25.623 32.6836 26.3906C32.4727 27.1582 32.1709 27.876 31.7783 28.5439C31.3857 29.2119 30.917 29.8184 30.3721 30.3633C29.8271 30.9082 29.2178 31.377 28.5439 31.7695C27.8701 32.1621 27.1523 32.4639 26.3906 32.6748C25.6289 32.8857 24.832 32.9941 24 33C23.1738 33 22.377 32.8945 21.6094 32.6836C20.8418 32.4727 20.124 32.1709 19.4561 31.7783C18.7881 31.3857 18.1816 30.917 17.6367 30.3721C17.0918 29.8271 16.623 29.2178 16.2305 28.5439C15.8379 27.8701 15.5361 27.1553 15.3252 26.3994C15.1143 25.6436 15.0059 24.8438 15 24C15 23.1738 15.1055 22.377 15.3164 21.6094C15.5273 20.8418 15.8291 20.124 16.2217 19.4561C16.6143 18.7881 17.083 18.1816 17.6279 17.6367C18.1729 17.0918 18.7822 16.623 19.4561 16.2305C20.1299 15.8379 20.8447 15.5361 21.6006 15.3252C22.3564 15.1143 23.1562 15.0059 24 15ZM24 31.875C24.7207 31.875 25.415 31.7812 26.083 31.5938C26.751 31.4062 27.3779 31.1426 27.9639 30.8027C28.5498 30.4629 29.083 30.0498 29.5635 29.5635C30.0439 29.0771 30.4541 28.5469 30.7939 27.9727C31.1338 27.3984 31.4004 26.7715 31.5938 26.0918C31.7871 25.4121 31.8809 24.7148 31.875 24C31.875 23.2793 31.7812 22.585 31.5938 21.917C31.4062 21.249 31.1426 20.6221 30.8027 20.0361C30.4629 19.4502 30.0498 18.917 29.5635 18.4365C29.0771 17.9561 28.5469 17.5459 27.9727 17.2061C27.3984 16.8662 26.7715 16.5996 26.0918 16.4062C25.4121 16.2129 24.7148 16.1191 24 16.125C23.2793 16.125 22.585 16.2188 21.917 16.4062C21.249 16.5938 20.6221 16.8574 20.0361 17.1973C19.4502 17.5371 18.917 17.9502 18.4365 18.4365C17.9561 18.9229 17.5459 19.4531 17.2061 20.0273C16.8662 20.6016 16.5996 21.2285 16.4062 21.9082C16.2129 22.5879 16.1191 23.2852 16.125 24C16.125 24.7207 16.2188 25.415 16.4062 26.083C16.5938 26.751 16.8574 27.3779 17.1973 27.9639C17.5371 28.5498 17.9502 29.083 18.4365 29.5635C18.9229 30.0439 19.4531 30.4541 20.0273 30.7939C20.6016 31.1338 21.2285 31.4004 21.9082 31.5938C22.5879 31.7871 23.2852 31.8809 24 31.875Z" fill="black" stroke="black"/>
</svg>
