<svg width="41" height="41" viewBox="0 0 41 41" fill="none" xmlns="http://www.w3.org/2000/svg">
<path d="M20.9375 0.9375C16.9819 0.9375 13.1151 2.11048 9.8261 4.30811C6.53712 6.50573 3.97367 9.62931 2.45992 13.2838C0.946165 16.9384 0.550099 20.9597 1.3218 24.8393C2.09351 28.7189 3.99832 32.2826 6.79537 35.0796C9.59242 37.8767 13.1561 39.7815 17.0357 40.5532C20.9153 41.3249 24.9366 40.9288 28.5912 39.4151C32.2457 37.9013 35.3693 35.3379 37.5669 32.0489C39.7645 28.7599 40.9375 24.8931 40.9375 20.9375C40.9313 15.6351 38.8221 10.5516 35.0728 6.80224C31.3234 3.05286 26.2399 0.943727 20.9375 0.9375ZM20.9375 38.5846C17.4472 38.5846 14.0354 37.5496 11.1333 35.6105C8.23128 33.6714 5.96942 30.9153 4.63375 27.6907C3.29809 24.4662 2.94862 20.9179 3.62953 17.4947C4.31045 14.0715 5.99117 10.9271 8.45915 8.45914C10.9271 5.99116 14.0715 4.31044 17.4947 3.62952C20.9179 2.94861 24.4662 3.29808 27.6907 4.63374C30.9153 5.96941 33.6714 8.23127 35.6105 11.1333C37.5496 14.0354 38.5846 17.4472 38.5846 20.9375C38.5794 25.6162 36.7185 30.1018 33.4101 33.4101C30.1018 36.7185 25.6162 38.5794 20.9375 38.5846ZM33.0944 20.9375C33.0944 21.2495 32.9704 21.5488 32.7498 21.7694C32.5292 21.99 32.2299 22.114 31.9179 22.114H20.9375C20.6255 22.114 20.3262 21.99 20.1056 21.7694C19.885 21.5488 19.761 21.2495 19.761 20.9375V9.95711C19.761 9.64509 19.885 9.34585 20.1056 9.12522C20.3262 8.90459 20.6255 8.78064 20.9375 8.78064C21.2495 8.78064 21.5488 8.90459 21.7694 9.12522C21.99 9.34585 22.114 9.64509 22.114 9.95711V19.761H31.9179C32.2299 19.761 32.5292 19.885 32.7498 20.1056C32.9704 20.3262 33.0944 20.6255 33.0944 20.9375Z" fill="#989898"/>
</svg>
