<svg width="40" height="40" viewBox="0 0 40 40" fill="none" xmlns="http://www.w3.org/2000/svg">
<path d="M24.5765 13.3789L26.6207 15.4231L6.49008 35.5537H4.44592V33.5095L24.5765 13.3789ZM32.5754 0.00292969C32.02 0.00292969 31.4423 0.225122 31.0201 0.647287L26.954 4.7134L35.2862 13.0456L39.3523 8.97949C39.5583 8.77393 39.7217 8.52977 39.8332 8.26097C39.9447 7.99218 40.0021 7.70404 40.0021 7.41304C40.0021 7.12203 39.9447 6.83389 39.8332 6.5651C39.7217 6.2963 39.5583 6.05214 39.3523 5.84658L34.153 0.647287C33.7086 0.202902 33.1531 0.00292969 32.5754 0.00292969ZM24.5765 7.09086L0.0020752 31.6653V39.9975H8.33428L32.9087 15.4231L24.5765 7.09086Z" fill="black"/>
</svg>
