<svg width="41" height="40" viewBox="0 0 41 40" fill="none" xmlns="http://www.w3.org/2000/svg">
<path d="M20.6666 0.747559C18.0402 0.747559 15.4395 1.26487 13.013 2.26997C10.5864 3.27506 8.38166 4.74825 6.52449 6.60542C2.77376 10.3562 0.666626 15.4432 0.666626 20.7476C0.666626 29.5876 6.40663 37.0876 14.3466 39.7476C15.3466 39.9076 15.6666 39.2876 15.6666 38.7476V35.3676C10.1266 36.5676 8.94663 32.6876 8.94663 32.6876C8.02663 30.3676 6.72663 29.7476 6.72663 29.7476C4.90663 28.5076 6.86663 28.5476 6.86663 28.5476C8.86663 28.6876 9.92663 30.6076 9.92663 30.6076C11.6666 33.6476 14.6066 32.7476 15.7466 32.2676C15.9266 30.9676 16.4466 30.0876 17.0066 29.5876C12.5666 29.0876 7.90663 27.3676 7.90663 19.7476C7.90663 17.5276 8.66663 15.7476 9.96663 14.3276C9.76663 13.8276 9.06663 11.7476 10.1666 9.04756C10.1666 9.04756 11.8466 8.50756 15.6666 11.0876C17.2466 10.6476 18.9666 10.4276 20.6666 10.4276C22.3666 10.4276 24.0866 10.6476 25.6666 11.0876C29.4866 8.50756 31.1666 9.04756 31.1666 9.04756C32.2666 11.7476 31.5666 13.8276 31.3666 14.3276C32.6666 15.7476 33.4266 17.5276 33.4266 19.7476C33.4266 27.3876 28.7466 29.0676 24.2866 29.5676C25.0066 30.1876 25.6666 31.4076 25.6666 33.2676V38.7476C25.6666 39.2876 25.9866 39.9276 27.0066 39.7476C34.9466 37.0676 40.6666 29.5876 40.6666 20.7476C40.6666 18.1211 40.1493 15.5204 39.1442 13.0939C38.1391 10.6674 36.6659 8.46259 34.8088 6.60542C32.9516 4.74825 30.7468 3.27506 28.3203 2.26997C25.8938 1.26487 23.2931 0.747559 20.6666 0.747559Z" fill="black"/>
</svg>
