<svg width="45" height="41" viewBox="0 0 45 41" fill="none" xmlns="http://www.w3.org/2000/svg">
<path d="M40.3334 7.02651L17.5134 29.8665L9.03337 21.3865L11.8534 18.5665L17.5134 24.2265L37.5134 4.22651L40.3334 7.02651ZM20.3334 36.6665C11.5134 36.6665 4.33337 29.4865 4.33337 20.6665C4.33337 11.8465 11.5134 4.66651 20.3334 4.66651C23.4734 4.66651 26.4134 5.58651 28.8934 7.16651L31.7934 4.26651C28.4325 1.9206 24.432 0.6639 20.3334 0.666508C9.29337 0.666508 0.333374 9.62651 0.333374 20.6665C0.333374 31.7065 9.29337 40.6665 20.3334 40.6665C23.7934 40.6665 27.0534 39.7865 29.8934 38.2265L26.8934 35.2265C24.8934 36.1465 22.6734 36.6665 20.3334 36.6665ZM34.3334 26.6665H28.3334V30.6665H34.3334V36.6665H38.3334V30.6665H44.3334V26.6665H38.3334V20.6665H34.3334V26.6665Z" fill="black"/>
</svg>
