<svg width="36" height="44" viewBox="0 0 36 44" fill="none" xmlns="http://www.w3.org/2000/svg">
<path d="M5.99998 35.9999V17.9999C5.99998 14.8174 7.26426 11.7651 9.51468 9.5147C11.7651 7.26428 14.8173 6 17.9999 6C21.1825 6 24.2347 7.26428 26.4852 9.5147C28.7356 11.7651 29.9999 14.8174 29.9999 17.9999V35.9999M5.99998 35.9999H29.9999M5.99998 35.9999H2M29.9999 35.9999H33.9998M15.9999 41.9998H19.9999" stroke="#989898" stroke-width="3.99998" stroke-linecap="round" stroke-linejoin="round"/>
<path d="M18 5.99998C19.1046 5.99998 20 5.10455 20 3.99999C20 2.89543 19.1046 2 18 2C16.8954 2 16 2.89543 16 3.99999C16 5.10455 16.8954 5.99998 18 5.99998Z" stroke="#989898" stroke-width="3.99998"/>
<path d="M28.5555 17.1105C31.6234 17.1105 34.1105 14.6234 34.1105 11.5555C34.1105 8.48755 31.6234 6.00049 28.5555 6.00049C25.4875 6.00049 23.0005 8.48755 23.0005 11.5555C23.0005 14.6234 25.4875 17.1105 28.5555 17.1105Z" fill="#FF0000"/>
</svg>
