<svg width="33" height="40" viewBox="0 0 33 40" fill="none" xmlns="http://www.w3.org/2000/svg">
<path fill-rule="evenodd" clip-rule="evenodd" d="M16.3636 3.23324e-08C15.8424 -6.94676e-05 15.3273 0.111907 14.8531 0.32834C14.379 0.544773 13.9569 0.860605 13.6155 1.25443C13.2741 1.64826 13.0213 2.11088 12.8744 2.61093C12.7274 3.11099 12.6896 3.6368 12.7636 4.15273C10.1284 4.93077 7.81557 6.5404 6.17053 8.74122C4.52549 10.942 3.63651 13.616 3.63636 16.3636V30.9091H1.81818C1.33597 30.9091 0.873508 31.1006 0.532533 31.4416C0.191558 31.7826 0 32.2451 0 32.7273C0 33.2095 0.191558 33.6719 0.532533 34.0129C0.873508 34.3539 1.33597 34.5455 1.81818 34.5455H30.9091C31.3913 34.5455 31.8538 34.3539 32.1947 34.0129C32.5357 33.6719 32.7273 33.2095 32.7273 32.7273C32.7273 32.2451 32.5357 31.7826 32.1947 31.4416C31.8538 31.1006 31.3913 30.9091 30.9091 30.9091H29.0909V16.3636C29.0908 13.616 28.2018 10.942 26.5567 8.74122C24.9117 6.5404 22.5989 4.93077 19.9636 4.15273C20.0377 3.6368 19.9999 3.11099 19.8529 2.61093C19.7059 2.11088 19.4532 1.64826 19.1118 1.25443C18.7704 0.860605 18.3483 0.544773 17.8741 0.32834C17.4 0.111907 16.8848 -6.94676e-05 16.3636 3.23324e-08ZM20 38.1818C20 38.664 19.8084 39.1265 19.4675 39.4675C19.1265 39.8084 18.664 40 18.1818 40H14.5455C14.0632 40 13.6008 39.8084 13.2598 39.4675C12.9188 39.1265 12.7273 38.664 12.7273 38.1818C12.7273 37.6996 12.9188 37.2371 13.2598 36.8962C13.6008 36.5552 14.0632 36.3636 14.5455 36.3636H18.1818C18.664 36.3636 19.1265 36.5552 19.4675 36.8962C19.8084 37.2371 20 37.6996 20 38.1818Z" fill="white"/>
<path d="M27.3333 16.8883C30.4013 16.8883 32.8883 14.4013 32.8883 11.3333C32.8883 8.26538 30.4013 5.77832 27.3333 5.77832C24.2654 5.77832 21.7783 8.26538 21.7783 11.3333C21.7783 14.4013 24.2654 16.8883 27.3333 16.8883Z" fill="#FF0000"/>
</svg>
