<svg width="37" height="45" viewBox="0 0 37 45" fill="none" xmlns="http://www.w3.org/2000/svg">
<path d="M6.33335 36.6668V18.6669C6.33335 15.4844 7.59763 12.4321 9.84806 10.1817C12.0985 7.93127 15.1507 6.66699 18.3333 6.66699C21.5159 6.66699 24.5681 7.93127 26.8185 10.1817C29.069 12.4321 30.3332 15.4844 30.3332 18.6669V36.6668M6.33335 36.6668H30.3332M6.33335 36.6668H2.33337M30.3332 36.6668H34.3332M16.3333 42.6668H20.3333" stroke="#989898" stroke-width="3.99998" stroke-linecap="round" stroke-linejoin="round"/>
<path d="M18.3334 6.66697C19.4379 6.66697 20.3334 5.77155 20.3334 4.66698C20.3334 3.56242 19.4379 2.66699 18.3334 2.66699C17.2288 2.66699 16.3334 3.56242 16.3334 4.66698C16.3334 5.77155 17.2288 6.66697 18.3334 6.66697Z" stroke="#989898" stroke-width="3.99998"/>
</svg>
