<svg width="34" height="41" viewBox="0 0 34 41" fill="none" xmlns="http://www.w3.org/2000/svg">
<path fill-rule="evenodd" clip-rule="evenodd" d="M17 0.333496C16.4788 0.333427 15.9636 0.445403 15.4895 0.661836C15.0154 0.878269 14.5933 1.1941 14.2519 1.58793C13.9105 1.98175 13.6577 2.44437 13.5107 2.94443C13.3637 3.44449 13.326 3.9703 13.4 4.48622C10.7648 5.26427 8.45193 6.8739 6.80688 9.07471C5.16184 11.2755 4.27286 13.9494 4.27272 16.6971V31.2426H2.45453C1.97232 31.2426 1.50986 31.4341 1.16889 31.7751C0.82791 32.1161 0.636353 32.5786 0.636353 33.0608C0.636353 33.543 0.82791 34.0054 1.16889 34.3464C1.50986 34.6874 1.97232 34.8789 2.45453 34.8789H31.5454C32.0277 34.8789 32.4901 34.6874 32.8311 34.3464C33.1721 34.0054 33.3636 33.543 33.3636 33.0608C33.3636 32.5786 33.1721 32.1161 32.8311 31.7751C32.4901 31.4341 32.0277 31.2426 31.5454 31.2426H29.7273V16.6971C29.7271 13.9494 28.8381 11.2755 27.1931 9.07471C25.5481 6.8739 23.2352 5.26427 20.6 4.48622C20.674 3.9703 20.6362 3.44449 20.4893 2.94443C20.3423 2.44437 20.0895 1.98175 19.7481 1.58793C19.4067 1.1941 18.9846 0.878269 18.5105 0.661836C18.0363 0.445403 17.5212 0.333427 17 0.333496ZM20.6364 38.5153C20.6364 38.9975 20.4448 39.46 20.1038 39.801C19.7628 40.1419 19.3004 40.3335 18.8182 40.3335H15.1818C14.6996 40.3335 14.2371 40.1419 13.8962 39.801C13.5552 39.46 13.3636 38.9975 13.3636 38.5153C13.3636 38.0331 13.5552 37.5706 13.8962 37.2297C14.2371 36.8887 14.6996 36.6971 15.1818 36.6971H18.8182C19.3004 36.6971 19.7628 36.8887 20.1038 37.2297C20.4448 37.5706 20.6364 38.0331 20.6364 38.5153Z" fill="white"/>
</svg>
