<svg width="40" height="42" viewBox="0 0 40 42" fill="none" xmlns="http://www.w3.org/2000/svg">
<path d="M35.2918 23.0131C35.3775 22.3705 35.4203 21.7066 35.4203 20.9999C35.4203 20.3145 35.3775 19.6292 35.2704 18.9866L39.618 15.6027C39.8054 15.4483 39.9334 15.2337 39.9803 14.9955C40.0271 14.7573 39.9899 14.5102 39.875 14.2963L35.763 7.18584C35.6419 6.97073 35.4486 6.80542 35.2173 6.71918C34.986 6.63294 34.7317 6.63134 34.4994 6.71466L29.3807 8.7707C28.3098 7.95685 27.1747 7.27151 25.9111 6.7575L25.1401 1.31756C25.1022 1.0724 24.9776 0.848969 24.7889 0.687846C24.6003 0.526724 24.3602 0.438593 24.1121 0.439459H15.8879C15.3739 0.439459 14.967 0.803549 14.8813 1.31756L14.1103 6.7575C12.8467 7.27151 11.6902 7.97827 10.6407 8.7707L5.52206 6.71466C5.05088 6.54332 4.51545 6.71466 4.25845 7.18584L0.167788 14.2963C-0.089217 14.7461 -0.00354896 15.3029 0.424793 15.6027L4.77246 18.9866C4.66537 19.6292 4.57971 20.3359 4.57971 20.9999C4.57971 21.6638 4.62254 22.3705 4.72962 23.0131L0.381958 26.397C0.19461 26.5514 0.0665999 26.766 0.0197369 27.0042C-0.0271261 27.2424 0.0100581 27.4895 0.124954 27.7034L4.23703 34.8139C4.49404 35.285 5.02946 35.435 5.50064 35.285L10.6193 33.229C11.6902 34.0428 12.8253 34.7282 14.0889 35.2422L14.8599 40.6821C14.967 41.1962 15.3739 41.5602 15.8879 41.5602H24.1121C24.6261 41.5602 25.0544 41.1962 25.1187 40.6821L25.8897 35.2422C27.1533 34.7282 28.3098 34.0428 29.3593 33.229L34.4779 35.285C34.9491 35.4564 35.4845 35.285 35.7415 34.8139L39.8536 27.7034C40.1106 27.2322 40.0035 26.6968 39.5966 26.397L35.2918 23.0131ZM20 28.71C15.7594 28.71 12.2899 25.2404 12.2899 20.9999C12.2899 16.7593 15.7594 13.2897 20 13.2897C24.2406 13.2897 27.7101 16.7593 27.7101 20.9999C27.7101 25.2404 24.2406 28.71 20 28.71Z" fill="#989898"/>
</svg>
