<svg width="40" height="40" viewBox="0 0 40 40" fill="none" xmlns="http://www.w3.org/2000/svg">
<path d="M36.6667 7.50016H26.6667M36.6667 7.50016C36.6667 6.3335 33.3417 4.1535 32.5 3.3335M36.6667 7.50016C36.6667 8.66683 33.3417 10.8468 32.5 11.6668M21.5433 21.6752H26.7133M26.7133 21.6752H34.16C34.498 21.6903 34.8356 21.6367 35.1524 21.5178C35.4692 21.3989 35.7586 21.217 36.0032 20.9831C36.2477 20.7492 36.4424 20.4682 36.5753 20.1571C36.7083 19.8459 36.7769 19.511 36.7769 19.1727C36.7769 18.8343 36.7083 18.4994 36.5753 18.1883C36.4424 17.8771 36.2477 17.5961 36.0032 17.3622C35.7586 17.1284 35.4692 16.9465 35.1524 16.8275C34.8356 16.7086 34.498 16.655 34.16 16.6702H25.055M26.7133 21.6752L26.6683 23.4335C26.6538 23.9969 26.4967 24.5474 26.2116 25.0336C25.9266 25.5197 25.5229 25.9257 25.0383 26.2135M25.055 16.6702H17.4533M25.055 16.6702L20.4567 12.3468C17.345 9.72683 15.0767 11.1035 13.8167 12.0718L7.195 16.8718C6.62629 17.2836 5.9421 17.5052 5.24 17.5052H3.35166M25.0383 26.2135C24.522 26.5205 23.9324 26.6824 23.3317 26.6818H21.6583M25.0383 26.2135L24.9483 28.4385C24.9347 28.9727 24.7928 29.4958 24.5346 29.9636C24.2765 30.4315 23.9096 30.8304 23.465 31.1268M19.9383 31.6885H21.61C22.295 31.6885 22.9333 31.4818 23.4633 31.1268L23.0167 33.7785C22.9081 34.5845 22.5087 35.323 21.8935 35.855C21.2783 36.387 20.4899 36.6757 19.6767 36.6668H13.7633C12.7567 36.6668 11.7467 36.5852 10.79 36.2702C9.99333 36.0085 9.11666 35.6418 8.545 35.1918C7.31166 34.2218 6.87333 33.5418 5.815 33.3668C4.96833 33.2252 3.905 33.2052 3.33167 33.2052" stroke="black" stroke-width="2.5" stroke-linecap="round" stroke-linejoin="round"/>
</svg>
