<svg width="40" height="30" viewBox="0 0 40 30" fill="none" xmlns="http://www.w3.org/2000/svg">
<path fill-rule="evenodd" clip-rule="evenodd" d="M1.48148 0.185059C1.08857 0.185059 0.711747 0.341143 0.433916 0.618975C0.156084 0.896806 0 1.27363 0 1.66654V4.6295C0 5.02242 0.156084 5.39924 0.433916 5.67707C0.711747 5.9549 1.08857 6.11098 1.48148 6.11098H4.44444C4.83736 6.11098 5.21418 5.9549 5.49201 5.67707C5.76984 5.39924 5.92593 5.02242 5.92593 4.6295V1.66654C5.92593 1.27363 5.76984 0.896806 5.49201 0.618975C5.21418 0.341143 4.83736 0.185059 4.44444 0.185059H1.48148ZM4.44444 1.66654H1.48148V4.6295H4.44444V1.66654Z" fill="#989898"/>
<path d="M10.3704 3.14799C10.3704 2.75507 10.5265 2.37825 10.8043 2.10042C11.0821 1.82259 11.4589 1.6665 11.8519 1.6665H38.5185C38.9114 1.6665 39.2883 1.82259 39.5661 2.10042C39.8439 2.37825 40 2.75507 40 3.14799C40 3.5409 39.8439 3.91772 39.5661 4.19555C39.2883 4.47338 38.9114 4.62947 38.5185 4.62947H11.8519C11.4589 4.62947 11.0821 4.47338 10.8043 4.19555C10.5265 3.91772 10.3704 3.5409 10.3704 3.14799ZM11.8519 13.5184C11.4589 13.5184 11.0821 13.6744 10.8043 13.9523C10.5265 14.2301 10.3704 14.6069 10.3704 14.9998C10.3704 15.3928 10.5265 15.7696 10.8043 16.0474C11.0821 16.3252 11.4589 16.4813 11.8519 16.4813H38.5185C38.9114 16.4813 39.2883 16.3252 39.5661 16.0474C39.8439 15.7696 40 15.3928 40 14.9998C40 14.6069 39.8439 14.2301 39.5661 13.9523C39.2883 13.6744 38.9114 13.5184 38.5185 13.5184H11.8519ZM11.8519 25.3702C11.4589 25.3702 11.0821 25.5263 10.8043 25.8041C10.5265 26.082 10.3704 26.4588 10.3704 26.8517C10.3704 27.2446 10.5265 27.6214 10.8043 27.8993C11.0821 28.1771 11.4589 28.3332 11.8519 28.3332H38.5185C38.9114 28.3332 39.2883 28.1771 39.5661 27.8993C39.8439 27.6214 40 27.2446 40 26.8517C40 26.4588 39.8439 26.082 39.5661 25.8041C39.2883 25.5263 38.9114 25.3702 38.5185 25.3702H11.8519Z" fill="#989898"/>
<path fill-rule="evenodd" clip-rule="evenodd" d="M0 13.5186C0 13.1257 0.156084 12.7489 0.433916 12.471C0.711747 12.1932 1.08857 12.0371 1.48148 12.0371H4.44444C4.83736 12.0371 5.21418 12.1932 5.49201 12.471C5.76984 12.7489 5.92593 13.1257 5.92593 13.5186V16.4816C5.92593 16.8745 5.76984 17.2513 5.49201 17.5291C5.21418 17.807 4.83736 17.963 4.44444 17.963H1.48148C1.08857 17.963 0.711747 17.807 0.433916 17.5291C0.156084 17.2513 0 16.8745 0 16.4816V13.5186ZM1.48148 13.5186H4.44444V16.4816H1.48148V13.5186ZM1.48148 23.889C1.08857 23.889 0.711747 24.045 0.433916 24.3229C0.156084 24.6007 0 24.9775 0 25.3704V28.3334C0 28.7263 0.156084 29.1031 0.433916 29.381C0.711747 29.6588 1.08857 29.8149 1.48148 29.8149H4.44444C4.83736 29.8149 5.21418 29.6588 5.49201 29.381C5.76984 29.1031 5.92593 28.7263 5.92593 28.3334V25.3704C5.92593 24.9775 5.76984 24.6007 5.49201 24.3229C5.21418 24.045 4.83736 23.889 4.44444 23.889H1.48148ZM4.44444 25.3704H1.48148V28.3334H4.44444V25.3704Z" fill="#989898"/>
</svg>
