<svg width="48" height="48" viewBox="0 0 48 48" fill="none" xmlns="http://www.w3.org/2000/svg">
<rect width="48" height="48" rx="24" fill="#4BAFB1"/>
<path d="M25.4211 16.4211C25.4211 16.0442 25.2713 15.6827 25.0048 15.4162C24.7383 15.1497 24.3769 15 24 15C23.6231 15 23.2617 15.1497 22.9952 15.4162C22.7287 15.6827 22.5789 16.0442 22.5789 16.4211V22.5789H16.4211C16.0442 22.5789 15.6827 22.7287 15.4162 22.9952C15.1497 23.2617 15 23.6231 15 24C15 24.3769 15.1497 24.7383 15.4162 25.0048C15.6827 25.2713 16.0442 25.4211 16.4211 25.4211H22.5789V31.5789C22.5789 31.9558 22.7287 32.3173 22.9952 32.5838C23.2617 32.8503 23.6231 33 24 33C24.3769 33 24.7383 32.8503 25.0048 32.5838C25.2713 32.3173 25.4211 31.9558 25.4211 31.5789V25.4211H31.5789C31.9558 25.4211 32.3173 25.2713 32.5838 25.0048C32.8503 24.7383 33 24.3769 33 24C33 23.6231 32.8503 23.2617 32.5838 22.9952C32.3173 22.7287 31.9558 22.5789 31.5789 22.5789H25.4211V16.4211Z" fill="black" stroke="black"/>
</svg>
