<svg width="40" height="40" viewBox="0 0 40 40" fill="none" xmlns="http://www.w3.org/2000/svg">
<path d="M4.04 40C2.92833 40 1.9775 39.6042 1.1875 38.8125C0.3975 38.0208 0.00166667 37.0717 0 35.965L0 20.625H16.25V40H4.04ZM18.75 40V20.625H40V35.9625C40 37.0725 39.6042 38.0225 38.8125 38.8125C38.0208 39.6025 37.0708 39.9983 35.9625 40H18.75ZM0 18.125L0 4.04C0 2.92833 0.395833 1.9775 1.1875 1.1875C1.97917 0.3975 2.92917 0.00166667 4.0375 0L35.9625 0C37.0725 0 38.0225 0.395833 38.8125 1.1875C39.6025 1.97917 39.9983 2.92917 40 4.0375V18.125H0Z" fill="white"/>
</svg>
