<svg width="32" height="40" viewBox="0 0 32 40" fill="none" xmlns="http://www.w3.org/2000/svg">
<path d="M7.77778 32.2222H23.3333V30H7.77778V32.2222ZM7.77778 23.3333H23.3333V21.1111H7.77778V23.3333ZM3.59111 40C2.56741 40 1.71333 39.6578 1.02889 38.9733C0.344444 38.2889 0.00148148 37.4348 0 36.4111V3.58889C0 2.56667 0.342962 1.71333 1.02889 1.02889C1.71481 0.344445 2.56889 0.00148148 3.59111 0H21.1111L31.1111 10V36.4111C31.1111 37.4333 30.7689 38.2874 30.0844 38.9733C29.4 39.6593 28.5452 40.0015 27.52 40H3.59111ZM20 11.1111V2.22222H3.59111C3.24889 2.22222 2.93481 2.36444 2.64889 2.64889C2.36296 2.93333 2.22074 3.24667 2.22222 3.58889V36.4111C2.22222 36.7519 2.36444 37.0652 2.64889 37.3511C2.93333 37.637 3.24667 37.7793 3.58889 37.7778H27.5222C27.863 37.7778 28.1763 37.6356 28.4622 37.3511C28.7481 37.0667 28.8904 36.7526 28.8889 36.4089V11.1111H20Z" fill="#989898"/>
</svg>
