<svg width="46" height="46" viewBox="0 0 46 46" fill="none" xmlns="http://www.w3.org/2000/svg">
<path d="M3 23C3 25.6264 3.51732 28.2272 4.52241 30.6537C5.5275 33.0802 7.00069 35.285 8.85786 37.1421C10.715 38.9993 12.9198 40.4725 15.3463 41.4776C17.7728 42.4827 20.3736 43 23 43C25.6264 43 28.2272 42.4827 30.6537 41.4776C33.0802 40.4725 35.285 38.9993 37.1421 37.1421C38.9993 35.285 40.4725 33.0802 41.4776 30.6537C42.4827 28.2272 43 25.6264 43 23C43 17.6957 40.8929 12.6086 37.1421 8.85786C33.3914 5.10714 28.3043 3 23 3C17.6957 3 12.6086 5.10714 8.85786 8.85786C5.10714 12.6086 3 17.6957 3 23Z" stroke="#989898" stroke-width="4.44444" stroke-linecap="round" stroke-linejoin="round"/>
<path d="M23 11.8887V22.9998L29.6667 29.6664" stroke="#989898" stroke-width="4.44444" stroke-linecap="round" stroke-linejoin="round"/>
</svg>
