<svg width="69" height="40" viewBox="0 0 69 40" fill="none" xmlns="http://www.w3.org/2000/svg">
<path d="M54.2857 34.2857V40H20V34.2857C20 34.2857 20 22.8571 37.1429 22.8571C54.2857 22.8571 54.2857 34.2857 54.2857 34.2857ZM45.7143 8.57143C45.7143 6.87616 45.2116 5.21896 44.2697 3.8094C43.3279 2.39984 41.9892 1.30122 40.423 0.652465C38.8568 0.00371388 37.1333 -0.166029 35.4707 0.164701C33.808 0.495432 32.2807 1.31178 31.0819 2.51052C29.8832 3.70925 29.0669 5.23653 28.7361 6.89923C28.4054 8.56192 28.5751 10.2854 29.2239 11.8516C29.8726 13.4178 30.9713 14.7565 32.3808 15.6983C33.7904 16.6402 35.4476 17.1429 37.1429 17.1429C39.4161 17.1429 41.5963 16.2398 43.2038 14.6323C44.8112 13.0249 45.7143 10.8447 45.7143 8.57143ZM54.8571 23.0286C56.4189 24.4694 57.6781 26.207 58.5611 28.1398C59.4441 30.0725 59.9332 32.1618 60 34.2857V40H68.5714V34.2857C68.5714 34.2857 68.5714 24.4286 54.8571 23.0286ZM51.4286 3.26144e-06C50.5653 5.34325e-05 49.7073 0.135015 48.8857 0.400003C50.5573 2.79706 51.4535 5.6491 51.4535 8.57143C51.4535 11.4938 50.5573 14.3458 48.8857 16.7429C49.7073 17.0078 50.5653 17.1428 51.4286 17.1429C53.7019 17.1429 55.882 16.2398 57.4895 14.6323C59.0969 13.0249 60 10.8447 60 8.57143C60 6.29815 59.0969 4.11797 57.4895 2.51052C55.882 0.903062 53.7019 3.26144e-06 51.4286 3.26144e-06ZM22.8571 14.2857H14.2857V5.71429H8.57143V14.2857H0V20H8.57143V28.5714H14.2857V20H22.8571V14.2857Z" fill="#989898"/>
</svg>
