<svg width="45" height="55" viewBox="0 0 45 55" fill="none" xmlns="http://www.w3.org/2000/svg">
<path d="M7.33337 45.1665V22.6665C7.33337 18.6883 8.91373 14.8729 11.7268 12.0599C14.5398 9.24686 18.3551 7.6665 22.3334 7.6665C26.3116 7.6665 30.1269 9.24686 32.94 12.0599C35.753 14.8729 37.3334 18.6883 37.3334 22.6665V45.1665M7.33337 45.1665H37.3334M7.33337 45.1665H2.33337M37.3334 45.1665H42.3334M19.8334 52.6665H24.8334" stroke="#989898" stroke-width="3.75" stroke-linecap="round" stroke-linejoin="round"/>
<path d="M22.3334 7.6665C23.7141 7.6665 24.8334 6.54722 24.8334 5.1665C24.8334 3.78579 23.7141 2.6665 22.3334 2.6665C20.9527 2.6665 19.8334 3.78579 19.8334 5.1665C19.8334 6.54722 20.9527 7.6665 22.3334 7.6665Z" stroke="#989898" stroke-width="3.75"/>
</svg>
