<svg width="40" height="42" viewBox="0 0 40 42" fill="none" xmlns="http://www.w3.org/2000/svg">
<path d="M35.2918 22.5736C35.3775 21.9311 35.4203 21.2672 35.4203 20.5604C35.4203 19.8751 35.3775 19.1897 35.2704 18.5472L39.618 15.1633C39.8054 15.0089 39.9334 14.7943 39.9803 14.5561C40.0271 14.3178 39.9899 14.0707 39.875 13.8569L35.763 6.74638C35.6419 6.53128 35.4486 6.36597 35.2173 6.27973C34.986 6.19349 34.7317 6.19189 34.4994 6.27521L29.3807 8.33125C28.3098 7.5174 27.1747 6.83205 25.9111 6.31804L25.1401 0.878106C25.1022 0.632945 24.9776 0.409516 24.7889 0.248393C24.6003 0.0872704 24.3602 -0.000859906 24.1121 6.32531e-06H15.8879C15.3739 6.32531e-06 14.967 0.364096 14.8813 0.878106L14.1103 6.31804C12.8467 6.83205 11.6902 7.53882 10.6407 8.33125L5.52206 6.27521C5.05088 6.10387 4.51545 6.27521 4.25845 6.74638L0.167788 13.8569C-0.089217 14.3066 -0.00354896 14.8635 0.424793 15.1633L4.77246 18.5472C4.66537 19.1897 4.57971 19.8965 4.57971 20.5604C4.57971 21.2243 4.62254 21.9311 4.72962 22.5736L0.381958 25.9575C0.19461 26.1119 0.0665999 26.3265 0.0197369 26.5647C-0.0271261 26.803 0.0100581 27.0501 0.124954 27.2639L4.23703 34.3744C4.49404 34.8456 5.02946 34.9955 5.50064 34.8456L10.6193 32.7895C11.6902 33.6034 12.8253 34.2887 14.0889 34.8027L14.8599 40.2427C14.967 40.7567 15.3739 41.1208 15.8879 41.1208H24.1121C24.6261 41.1208 25.0544 40.7567 25.1187 40.2427L25.8897 34.8027C27.1533 34.2887 28.3098 33.6034 29.3593 32.7895L34.4779 34.8456C34.9491 35.0169 35.4845 34.8456 35.7415 34.3744L39.8536 27.2639C40.1106 26.7928 40.0035 26.2573 39.5966 25.9575L35.2918 22.5736ZM20 28.2705C15.7594 28.2705 12.2899 24.801 12.2899 20.5604C12.2899 16.3198 15.7594 12.8502 20 12.8502C24.2406 12.8502 27.7101 16.3198 27.7101 20.5604C27.7101 24.801 24.2406 28.2705 20 28.2705Z" fill="white"/>
</svg>
