<svg width="41" height="41" viewBox="0 0 41 41" fill="none" xmlns="http://www.w3.org/2000/svg">
<path d="M29.6566 4.43715C30.1008 3.99305 30.6281 3.64079 31.2085 3.40048C31.7888 3.16018 32.4108 3.03654 33.039 3.03662C33.6671 3.0367 34.2891 3.1605 34.8694 3.40095C35.4497 3.64141 35.9769 3.9938 36.421 4.43802C36.8651 4.88224 37.2174 5.40958 37.4577 5.98994C37.698 6.57029 37.8216 7.19229 37.8216 7.82043C37.8215 8.44857 37.6977 9.07055 37.4572 9.65084C37.2168 10.2311 36.8644 10.7584 36.4202 11.2025L23.5643 24.0549C23.2912 24.3283 22.9503 24.524 22.5764 24.6219L13.9919 26.8654L16.2355 18.2809C16.3328 17.9072 16.5279 17.5663 16.8007 17.293L29.6566 4.43715ZM38.2654 2.59364C37.579 1.90713 36.7641 1.36255 35.8673 0.991001C34.9704 0.619456 34.0091 0.428223 33.0384 0.428223C32.0676 0.428223 31.1063 0.619456 30.2094 0.991001C29.3126 1.36255 28.4977 1.90713 27.8113 2.59364L14.9554 15.4478C14.3546 16.0489 13.9247 16.7993 13.7102 17.6217L10.9049 28.3593C10.847 28.5797 10.8478 28.8115 10.9074 29.0315C10.9669 29.2515 11.083 29.452 11.2441 29.6132C11.4053 29.7743 11.6058 29.8904 11.8258 29.95C12.0458 30.0095 12.2776 30.0103 12.498 29.9524L23.2356 27.1471C24.058 26.9326 24.8084 26.5028 25.4095 25.9019L38.2637 13.046C39.6496 11.6599 40.4282 9.77998 40.4282 7.81982C40.4282 5.85966 39.6496 3.97977 38.2637 2.59364M22.8408 5.10325C19.3619 4.39861 15.7487 4.83305 12.536 6.34223C9.32331 7.85142 6.68207 10.3551 5.00338 13.4826C3.32469 16.61 2.6978 20.1949 3.21555 23.7064C3.7333 27.218 5.36816 30.4694 7.87803 32.9793C10.3879 35.4892 13.6393 37.124 17.1509 37.6418C20.6624 38.1595 24.2473 37.5326 27.3748 35.8539C30.5022 34.1752 33.0059 31.534 34.5151 28.3213C36.0243 25.1087 36.4587 21.4954 35.7541 18.0165L37.9054 15.8634C38.415 17.5852 38.688 19.4113 38.688 21.2983C38.688 31.8637 30.1227 40.4291 19.5573 40.4291C8.99185 40.4291 0.428223 31.8637 0.428223 21.2983C0.428223 10.7329 8.99359 2.16754 19.559 2.16754C21.4477 2.16754 23.2704 2.44059 24.9939 2.95017L22.8408 5.10325Z" fill="#989898"/>
</svg>
