<svg width="41" height="41" viewBox="0 0 41 41" fill="none" xmlns="http://www.w3.org/2000/svg">
<path d="M40.0067 20.1345L21.6157 1.74354C21.3416 1.46721 21.0153 1.24812 20.6557 1.09902C20.2961 0.949913 19.9105 0.873771 19.5213 0.875015H2.35627C1.96335 0.875015 1.58653 1.0311 1.30869 1.30894C1.03086 1.58677 0.874771 1.96359 0.874771 2.35651V19.5215C0.873527 19.9108 0.949669 20.2964 1.09877 20.6559C1.24787 21.0155 1.46696 21.3418 1.7433 21.616L20.1342 40.0069C20.4094 40.2821 20.7361 40.5004 21.0956 40.6494C21.4551 40.7983 21.8405 40.875 22.2296 40.875C22.6188 40.875 23.0041 40.7983 23.3637 40.6494C23.7232 40.5004 24.0499 40.2821 24.325 40.0069L40.0067 24.3253C40.2819 24.0501 40.5002 23.7235 40.6491 23.3639C40.7981 23.0044 40.8748 22.619 40.8748 22.2299C40.8748 21.8407 40.7981 21.4554 40.6491 21.0958C40.5002 20.7363 40.2819 20.4096 40.0067 20.1345ZM22.2287 37.9125L3.83777 19.5215V3.83801H19.5213L37.9122 22.229L22.2287 37.9125ZM12.7268 10.5047C12.7268 10.9443 12.5964 11.3739 12.3522 11.7394C12.1081 12.1048 11.761 12.3896 11.3549 12.5578C10.9489 12.726 10.502 12.77 10.071 12.6843C9.63989 12.5985 9.24393 12.3869 8.93314 12.0761C8.62235 11.7653 8.4107 11.3694 8.32496 10.9383C8.23921 10.5072 8.28322 10.0604 8.45142 9.65433C8.61961 9.24827 8.90444 8.9012 9.26989 8.65702C9.63534 8.41283 10.065 8.2825 10.5045 8.2825C11.0939 8.2825 11.6591 8.51663 12.0759 8.93338C12.4926 9.35014 12.7268 9.91537 12.7268 10.5047Z" fill="#989898"/>
</svg>
