<svg width="40" height="30" viewBox="0 0 40 30" fill="none" xmlns="http://www.w3.org/2000/svg">
<path fill-rule="evenodd" clip-rule="evenodd" d="M1.48148 0C1.08857 0 0.711747 0.156084 0.433916 0.433916C0.156084 0.711748 0 1.08857 0 1.48148V4.44444C0 4.83736 0.156084 5.21418 0.433916 5.49201C0.711747 5.76984 1.08857 5.92593 1.48148 5.92593H4.44444C4.83736 5.92593 5.21418 5.76984 5.49201 5.49201C5.76984 5.21418 5.92593 4.83736 5.92593 4.44444V1.48148C5.92593 1.08857 5.76984 0.711748 5.49201 0.433916C5.21418 0.156084 4.83736 0 4.44444 0H1.48148ZM4.44444 1.48148H1.48148V4.44444H4.44444V1.48148Z" fill="white"/>
<path d="M10.3704 2.96293C10.3704 2.57001 10.5264 2.19319 10.8043 1.91536C11.0821 1.63753 11.4589 1.48145 11.8518 1.48145H38.5185C38.9114 1.48145 39.2882 1.63753 39.5661 1.91536C39.8439 2.19319 40 2.57001 40 2.96293C40 3.35584 39.8439 3.73266 39.5661 4.01049C39.2882 4.28832 38.9114 4.44441 38.5185 4.44441H11.8518C11.4589 4.44441 11.0821 4.28832 10.8043 4.01049C10.5264 3.73266 10.3704 3.35584 10.3704 2.96293ZM11.8518 13.3333C11.4589 13.3333 11.0821 13.4894 10.8043 13.7672C10.5264 14.045 10.3704 14.4219 10.3704 14.8148C10.3704 15.2077 10.5264 15.5845 10.8043 15.8623C11.0821 16.1402 11.4589 16.2963 11.8518 16.2963H38.5185C38.9114 16.2963 39.2882 16.1402 39.5661 15.8623C39.8439 15.5845 40 15.2077 40 14.8148C40 14.4219 39.8439 14.045 39.5661 13.7672C39.2882 13.4894 38.9114 13.3333 38.5185 13.3333H11.8518ZM11.8518 25.1851C11.4589 25.1851 11.0821 25.3412 10.8043 25.6191C10.5264 25.8969 10.3704 26.2737 10.3704 26.6666C10.3704 27.0595 10.5264 27.4364 10.8043 27.7142C11.0821 27.992 11.4589 28.1481 11.8518 28.1481H38.5185C38.9114 28.1481 39.2882 27.992 39.5661 27.7142C39.8439 27.4364 40 27.0595 40 26.6666C40 26.2737 39.8439 25.8969 39.5661 25.6191C39.2882 25.3412 38.9114 25.1851 38.5185 25.1851H11.8518Z" fill="white"/>
<path fill-rule="evenodd" clip-rule="evenodd" d="M0 13.3335C0 12.9406 0.156084 12.5638 0.433916 12.286C0.711747 12.0081 1.08857 11.8521 1.48148 11.8521H4.44444C4.83736 11.8521 5.21418 12.0081 5.49201 12.286C5.76984 12.5638 5.92593 12.9406 5.92593 13.3335V16.2965C5.92593 16.6894 5.76984 17.0662 5.49201 17.3441C5.21418 17.6219 4.83736 17.778 4.44444 17.778H1.48148C1.08857 17.778 0.711747 17.6219 0.433916 17.3441C0.156084 17.0662 0 16.6894 0 16.2965V13.3335ZM1.48148 13.3335H4.44444V16.2965H1.48148V13.3335ZM1.48148 23.7039C1.08857 23.7039 0.711747 23.86 0.433916 24.1378C0.156084 24.4156 0 24.7925 0 25.1854V28.1483C0 28.5413 0.156084 28.9181 0.433916 29.1959C0.711747 29.4737 1.08857 29.6298 1.48148 29.6298H4.44444C4.83736 29.6298 5.21418 29.4737 5.49201 29.1959C5.76984 28.9181 5.92593 28.5413 5.92593 28.1483V25.1854C5.92593 24.7925 5.76984 24.4156 5.49201 24.1378C5.21418 23.86 4.83736 23.7039 4.44444 23.7039H1.48148ZM4.44444 25.1854H1.48148V28.1483H4.44444V25.1854Z" fill="white"/>
</svg>
