<svg width="48" height="39" viewBox="0 0 48 39" fill="none" xmlns="http://www.w3.org/2000/svg">
<path d="M26.9479 17.146C28.9784 17.146 30.9258 16.3394 32.3617 14.9035C33.7975 13.4677 34.6041 11.5203 34.6041 9.48975C34.6041 7.45918 33.7975 5.51179 32.3617 4.07596C30.9258 2.64013 28.9784 1.8335 26.9479 1.8335M26.1669 36.8335H5.85381C3.60944 36.8335 1.79163 35.1557 1.79163 33.0841C1.79163 27.9063 6.33944 23.7085 11.9482 23.7085H20.0726C22.2472 23.7007 24.3727 24.3545 26.1669 25.5832M38.9791 23.7085V36.8335M45.5416 30.271H32.4166M23.6666 9.48975C23.6666 11.5203 22.86 13.4677 21.4242 14.9035C19.9883 16.3394 18.0409 17.146 16.0104 17.146C13.9798 17.146 12.0324 16.3394 10.5966 14.9035C9.16076 13.4677 8.35413 11.5203 8.35413 9.48975C8.35413 7.45918 9.16076 5.51179 10.5966 4.07596C12.0324 2.64013 13.9798 1.8335 16.0104 1.8335C18.0409 1.8335 19.9883 2.64013 21.4242 4.07596C22.86 5.51179 23.6666 7.45918 23.6666 9.48975Z" stroke="#989898" stroke-width="3.28125" stroke-linecap="round" stroke-linejoin="round"/>
</svg>
