<svg width="32" height="40" viewBox="0 0 32 40" fill="none" xmlns="http://www.w3.org/2000/svg">
<path d="M0 8C0 5.87827 0.842855 3.84344 2.34315 2.34315C3.84344 0.842855 5.87827 0 8 0H24C26.1217 0 28.1566 0.842855 29.6569 2.34315C31.1571 3.84344 32 5.87827 32 8V24C32 26.1217 31.1571 28.1566 29.6569 29.6569C28.1566 31.1571 26.1217 32 24 32H8C5.87827 32 3.84344 31.1571 2.34315 29.6569C0.842855 28.1566 0 26.1217 0 24V8ZM8 2.66667C6.58551 2.66667 5.22896 3.22857 4.22876 4.22876C3.22857 5.22896 2.66667 6.58551 2.66667 8V24C2.66667 25.4145 3.22857 26.771 4.22876 27.7712C5.22896 28.7714 6.58551 29.3333 8 29.3333H24C25.4145 29.3333 26.771 28.7714 27.7712 27.7712C28.7714 26.771 29.3333 25.4145 29.3333 24V8C29.3333 6.58551 28.7714 5.22896 27.7712 4.22876C26.771 3.22857 25.4145 2.66667 24 2.66667H8ZM0 38.6667C0 38.313 0.140476 37.9739 0.390525 37.7239C0.640573 37.4738 0.979711 37.3333 1.33333 37.3333H30.6667C31.0203 37.3333 31.3594 37.4738 31.6095 37.7239C31.8595 37.9739 32 38.313 32 38.6667C32 39.0203 31.8595 39.3594 31.6095 39.6095C31.3594 39.8595 31.0203 40 30.6667 40H1.33333C0.979711 40 0.640573 39.8595 0.390525 39.6095C0.140476 39.3594 0 39.0203 0 38.6667Z" fill="#989898"/>
</svg>
