<svg width="51" height="39" viewBox="0 0 51 39" fill="none" xmlns="http://www.w3.org/2000/svg">
<path d="M39.8691 32.7264V38.0835H14.8691V32.7264C14.8691 32.7264 14.8691 22.0121 27.3691 22.0121C39.8691 22.0121 39.8691 32.7264 39.8691 32.7264ZM33.6191 8.61921C33.6191 7.0299 33.2525 5.47628 32.5658 4.15481C31.879 2.83334 30.9029 1.80339 29.7609 1.19518C28.6188 0.586978 27.3622 0.427844 26.1498 0.737904C24.9374 1.04796 23.8238 1.81329 22.9497 2.93711C22.0756 4.06092 21.4803 5.49275 21.2392 7.05152C20.998 8.6103 21.1218 10.226 21.5949 11.6943C22.0679 13.1627 22.869 14.4177 23.8968 15.3007C24.9246 16.1836 26.133 16.6549 27.3691 16.6549C29.0267 16.6549 30.6164 15.8083 31.7885 14.3013C32.9606 12.7943 33.6191 10.7504 33.6191 8.61921ZM40.2858 22.1728C41.4246 23.5236 42.3427 25.1525 42.9866 26.9645C43.6304 28.7765 43.9871 30.7352 44.0358 32.7264V38.0835H50.2858V32.7264C50.2858 32.7264 50.2858 23.4853 40.2858 22.1728ZM37.7858 0.583499C37.1563 0.583546 36.5307 0.710072 35.9316 0.958499C37.1505 3.20574 37.804 5.87952 37.804 8.61921C37.804 11.3589 37.1505 14.0327 35.9316 16.2799C36.5307 16.5284 37.1563 16.6549 37.7858 16.6549C39.4434 16.6549 41.0331 15.8083 42.2052 14.3013C43.3773 12.7943 44.0358 10.7504 44.0358 8.61921C44.0358 6.48801 43.3773 4.44409 42.2052 2.93711C41.0331 1.43012 39.4434 0.583499 37.7858 0.583499ZM16.9524 13.9764H10.7024V5.94064H6.53577V13.9764H0.285767V19.3335H6.53577V27.3692H10.7024V19.3335H16.9524V13.9764Z" fill="#989898"/>
</svg>
